<?xml version="1.0" encoding="utf-8"?>
<!-- Generator: Adobe Illustrator 22.1.0, SVG Export Plug-In . SVG Version: 6.00 Build 0)  -->
<svg version="1.1" id="图层_1" xmlns="http://www.w3.org/2000/svg" xmlns:xlink="http://www.w3.org/1999/xlink" x="0px" y="0px"
	 viewBox="0 0 128 128" style="enable-background:new 0 0 128 128;" xml:space="preserve">
<style type="text/css">
	.st0{fill:#F5A79B;}
	.st1{fill:#1CA1C4;}
	.st2{fill:#A7C9D4;}
	.st3{fill:#FFFFFF;}
	.st4{fill:#FFDF7B;}
	.st5{fill:#454E51;}
	.st6{fill:#3E4D56;}
	.st7{fill:#F7FEFF;}
	.st8{fill:#D87760;}
	.st9{fill:#F7A28D;}
	.st10{fill:#F58E6F;}
</style>
<g>
	<rect x="33.3" y="18.8" class="st2" width="59.5" height="14.5"/>
	<rect x="30.8" y="21.3" class="st2" width="64.4" height="87.7"/>
	<rect x="28.1" y="23.6" class="st2" width="69.7" height="80.3"/>
	<rect x="25.1" y="26.6" class="st2" width="75.7" height="74.8"/>
	<rect x="23" y="29.1" class="st2" width="80.1" height="69.7"/>
	<rect x="20.2" y="31.7" class="st2" width="85.6" height="64.2"/>
	<rect x="17.7" y="34.4" class="st2" width="90.7" height="59.2"/>
	<rect x="47.2" y="71" class="st3" width="14.5" height="8.7"/>
	<rect x="74.1" y="66.9" class="st4" width="6.9" height="13.1"/>
	<rect x="78.9" y="64.1" class="st4" width="13.6" height="15.7"/>
	<rect x="33.4" y="16" transform="matrix(-1 -3.377029e-10 3.377029e-10 -1 126 34.7279)" class="st5" width="59.1" height="2.7"/>
	
		<rect x="-13.2" y="62.7" transform="matrix(3.467479e-07 -1 1 3.467479e-07 -47.6361 80.3639)" class="st5" width="59.1" height="2.7"/>
	<g>
		
			<rect x="47.2" y="68.5" transform="matrix(-1 -1.376945e-09 1.376945e-09 -1 108.812 139.6799)" class="st5" width="14.5" height="2.7"/>
		
			<rect x="44.5" y="61.1" transform="matrix(-1 -1.163003e-09 1.163003e-09 -1 106.1445 124.9498)" class="st5" width="17.2" height="2.7"/>
		
			<rect x="73" y="64.6" transform="matrix(-1 -3.389690e-09 3.389690e-09 -1 151.9458 131.8545)" class="st5" width="5.9" height="2.7"/>
		
			<rect x="78.8" y="62.1" transform="matrix(-1 -1.455749e-09 1.455749e-09 -1 171.2792 126.791)" class="st5" width="13.7" height="2.7"/>
		
			<rect x="72.1" y="79.7" transform="matrix(-1 -9.789934e-10 9.789934e-10 -1 164.6046 162.153)" class="st5" width="20.4" height="2.7"/>
		
			<rect x="47.2" y="79.8" transform="matrix(-1 -1.376820e-09 1.376820e-09 -1 108.812 162.2354)" class="st5" width="14.5" height="2.7"/>
		
			<rect x="16.4" y="62.7" transform="matrix(5.566395e-07 -1 1 5.566395e-07 -29.2235 98.7765)" class="st5" width="36.8" height="2.7"/>
		
			<rect x="54.6" y="62.7" transform="matrix(5.566395e-07 -1 1 5.566395e-07 8.9827 136.9827)" class="st5" width="36.8" height="2.7"/>
		
			<rect x="86.1" y="70.8" transform="matrix(-2.795935e-04 -1 1 -2.795935e-04 21.5671 165.871)" class="st5" width="15.2" height="2.7"/>
		<rect x="44.5" y="71.1" class="st5" width="2.7" height="8.6"/>
		<rect x="61.5" y="63.6" class="st5" width="2.7" height="16.1"/>
	</g>
	
		<rect x="80.1" y="62.7" transform="matrix(3.467479e-07 -1 1 3.467479e-07 45.636 173.636)" class="st5" width="59.1" height="2.7"/>
	
		<rect x="30.8" y="18.7" transform="matrix(-1 -7.470386e-09 7.470386e-09 -1 64.2565 39.9826)" class="st5" width="2.7" height="2.7"/>
	
		<rect x="28.2" y="21.3" transform="matrix(-1 -7.470386e-09 7.470386e-09 -1 59.0017 45.2374)" class="st5" width="2.7" height="2.7"/>
	
		<rect x="25.5" y="23.9" transform="matrix(-1 -7.470726e-09 7.470726e-09 -1 53.7469 50.4922)" class="st5" width="2.7" height="2.7"/>
	
		<rect x="22.9" y="26.5" transform="matrix(-1 -7.470386e-09 7.470386e-09 -1 48.4922 55.7469)" class="st5" width="2.7" height="2.7"/>
	
		<rect x="20.3" y="29.2" transform="matrix(-1 -7.470386e-09 7.470386e-09 -1 43.2374 61.0017)" class="st5" width="2.7" height="2.7"/>
	
		<rect x="17.7" y="31.8" transform="matrix(-1 -7.470386e-09 7.470386e-09 -1 37.9826 66.2565)" class="st5" width="2.7" height="2.7"/>
	<rect x="92.5" y="18.7" class="st5" width="2.7" height="2.7"/>
	<rect x="95.2" y="21.3" class="st5" width="2.7" height="2.7"/>
	<rect x="97.8" y="23.9" class="st5" width="2.7" height="2.7"/>
	<rect x="100.4" y="26.5" class="st5" width="2.7" height="2.7"/>
	<rect x="103" y="29.2" class="st5" width="2.7" height="2.7"/>
	<rect x="105.7" y="31.8" class="st5" width="2.7" height="2.7"/>
	
		<rect x="33.4" y="107.3" transform="matrix(-1 3.376414e-10 -3.376414e-10 -1 126 217.1929)" class="st2" width="59.1" height="2.7"/>
	
		<rect x="30.8" y="106.7" transform="matrix(-1 7.469705e-09 -7.469705e-09 -1 64.2565 216.0174)" class="st5" width="2.7" height="2.7"/>
	
		<rect x="28.2" y="102.3" transform="matrix(-1 7.470386e-09 -7.470386e-09 -1 59.0017 207.1933)" class="st2" width="2.7" height="2.7"/>
	
		<rect x="25.5" y="99.6" transform="matrix(-1 7.471066e-09 -7.471066e-09 -1 53.7469 201.9385)" class="st2" width="2.7" height="2.7"/>
	
		<rect x="22.9" y="98.8" transform="matrix(-1 7.471066e-09 -7.471066e-09 -1 48.4922 200.2531)" class="st5" width="2.7" height="2.7"/>
	
		<rect x="20.3" y="94.6" transform="matrix(-1 8.869204e-09 -8.869204e-09 -1 44.0608 193.4169)" class="st2" width="3.5" height="4.2"/>
	
		<rect x="17.7" y="93.5" transform="matrix(-1 7.471066e-09 -7.471066e-09 -1 37.9826 189.7435)" class="st5" width="2.7" height="2.7"/>
	<rect x="92.5" y="106.7" class="st5" width="2.7" height="2.7"/>
	<rect x="95.2" y="102.5" class="st2" width="2.7" height="2.7"/>
	<rect x="97.8" y="100.1" class="st2" width="2.7" height="2.7"/>
	<rect x="100.4" y="98.8" class="st5" width="2.7" height="2.7"/>
	<rect x="103" y="94.9" class="st2" width="2.7" height="2.7"/>
	<rect x="105.7" y="93.5" class="st5" width="2.7" height="2.7"/>
	<rect x="103" y="96.2" class="st5" width="2.7" height="2.7"/>
	<rect x="97.8" y="101.4" class="st5" width="2.7" height="2.7"/>
	
		<rect x="20.3" y="96.2" transform="matrix(-1 7.469705e-09 -7.469705e-09 -1 43.2374 194.9983)" class="st5" width="2.7" height="2.7"/>
	
		<rect x="25.5" y="101.4" transform="matrix(-1 7.469705e-09 -7.469705e-09 -1 53.7469 205.5078)" class="st5" width="2.7" height="2.7"/>
	
		<rect x="28.2" y="104" transform="matrix(-1 7.470386e-09 -7.470386e-09 -1 59.0017 210.7626)" class="st5" width="2.7" height="2.7"/>
	
		<rect x="33.4" y="109.3" transform="matrix(-1 3.377644e-10 -3.377644e-10 -1 126 221.2721)" class="st5" width="59.1" height="2.7"/>
	<rect x="95.2" y="104" class="st5" width="2.7" height="2.7"/>
</g>
</svg>
