<?xml version="1.0" encoding="utf-8"?>
<!-- Generator: Adobe Illustrator 22.1.0, SVG Export Plug-In . SVG Version: 6.00 Build 0)  -->
<svg version="1.1" id="图层_1" xmlns="http://www.w3.org/2000/svg" xmlns:xlink="http://www.w3.org/1999/xlink" x="0px" y="0px"
	 viewBox="0 0 128 128" style="enable-background:new 0 0 128 128;" xml:space="preserve">
<style type="text/css">
	.st0{fill:#F5A79B;}
	.st1{fill:#1CA1C4;}
	.st2{fill:#A7C9D4;}
	.st3{fill:#FFFFFF;}
	.st4{fill:#FFDF7B;}
	.st5{fill:#454E51;}
	.st6{fill:#3E4D56;}
	.st7{fill:#F7FEFF;}
	.st8{fill:#D87760;}
	.st9{fill:#F7A28D;}
	.st10{fill:#F58E6F;}
</style>
<g>
	<rect x="45.8" y="25.1" class="st3" width="47.7" height="38.5"/>
	<rect x="45.9" y="64.3" class="st3" width="47.7" height="38.5"/>
	<rect x="53.5" y="29.4" class="st2" width="41" height="33.4"/>
	<rect x="53.2" y="69.4" class="st4" width="41.3" height="32.8"/>
	
		<rect x="61.8" y="-6.3" transform="matrix(6.123234e-17 -1 1 6.123234e-17 38.3563 87.5169)" class="st5" width="2.2" height="61.7"/>
	
		<rect x="68.5" y="39.7" transform="matrix(6.123234e-17 -1 1 6.123234e-17 5.6231 133.5077)" class="st5" width="2.2" height="48.4"/>
	<rect x="60.5" y="9" class="st5" width="2.2" height="15.3"/>
	<rect x="44.2" y="23.5" class="st5" width="2.2" height="80.8"/>
	<rect x="74.1" y="9" class="st5" width="2.2" height="15.3"/>
	
		<rect x="61.8" y="72.6" transform="matrix(-1.836970e-16 1 -1 -1.836970e-16 166.3563 40.4831)" class="st5" width="2.2" height="61.7"/>
	<rect x="60.5" y="103.1" class="st5" width="2.2" height="15.9"/>
	<rect x="74.1" y="103.1" class="st5" width="2.2" height="15.9"/>
	<rect x="93.7" y="25.6" class="st5" width="2.2" height="37.2"/>
	<rect x="93.7" y="65.1" class="st5" width="2.2" height="37.2"/>
</g>
</svg>
