<?xml version="1.0" encoding="utf-8"?>
<!-- Generator: Adobe Illustrator 22.1.0, SVG Export Plug-In . SVG Version: 6.00 Build 0)  -->
<svg version="1.1" id="图层_1" xmlns="http://www.w3.org/2000/svg" xmlns:xlink="http://www.w3.org/1999/xlink" x="0px" y="0px"
	 viewBox="0 0 128 128" style="enable-background:new 0 0 128 128;" xml:space="preserve">
<style type="text/css">
	.st0{fill:#F5A79B;}
	.st1{fill:#1CA1C4;}
	.st2{fill:#A7C9D4;}
	.st3{fill:#FFFFFF;}
	.st4{fill:#FFDF7B;}
	.st5{fill:#454E51;}
	.st6{fill:#3E4D56;}
	.st7{fill:#F7FEFF;}
	.st8{fill:#D87760;}
	.st9{fill:#F7A28D;}
	.st10{fill:#F58E6F;}
</style>
<rect x="41.6" y="98.7" class="st3" width="43.9" height="9.4"/>
<rect x="35.7" y="109.6" class="st4" width="55.6" height="5.1"/>
<rect x="9.6" y="18.1" class="st2" width="107.7" height="74.7"/>
<polygon class="st2" points="111.9,15.8 111.9,13.6 15.1,13.6 15.1,15.8 12.9,15.8 12.9,21.5 114.1,21.5 114.1,15.8 "/>
<rect x="12.9" y="87.3" class="st2" width="101.3" height="7.7"/>
<rect x="15.1" y="89.4" class="st2" width="96.9" height="7.8"/>
<rect x="62.4" y="-35.9" transform="matrix(6.123234e-17 -1 1 6.123234e-17 50.9723 76.0277)" class="st5" width="2.2" height="96.9"/>
<rect x="10.6" y="16.8" class="st2" width="2.2" height="2.2"/>
<rect x="116.4" y="18.1" transform="matrix(-1 -2.521388e-07 2.521388e-07 -1 234.9258 110.8426)" class="st5" width="2.2" height="74.7"/>
<rect x="111.9" y="13.6" transform="matrix(-1 -4.519020e-11 4.519020e-11 -1 226.0703 29.4831)" class="st5" width="2.2" height="2.2"/>
<rect x="113.1" y="15.8" transform="matrix(-1 -4.519020e-11 4.519020e-11 -1 228.498 33.9108)" class="st2" width="2.2" height="2.2"/>
<rect x="62.4" y="73.8" transform="matrix(-1.836970e-16 1 -1 -1.836970e-16 178.9723 51.9723)" class="st5" width="2.2" height="83.3"/>
<polygon class="st5" points="33.9,107.7 33.9,108.8 33.9,109.9 33.9,115.8 36.1,115.8 36.1,109.9 90.9,109.9 90.9,115.5 93.1,115.5 
	93.1,109.9 93.1,108.8 93.1,107.7 "/>
<rect x="11.6" y="92.8" class="st2" width="2.2" height="2.2"/>
<rect x="111.9" y="95" transform="matrix(-1 4.436839e-11 -4.436839e-11 -1 226.0703 192.202)" class="st5" width="2.2" height="2.2"/>
<rect x="114.1" y="92.8" transform="matrix(-1 4.436839e-11 -4.436839e-11 -1 230.498 187.7743)" class="st5" width="2.2" height="2.2"/>
<polygon class="st5" points="64.9,85.2 63.5,85.2 61.3,85.2 61.3,87.4 63.5,87.4 64.9,87.4 65.7,87.4 65.7,85.2 "/>
<polygon class="st5" points="59.1,87.4 59.1,89.6 59.1,90.8 59.1,91.8 61.3,91.8 61.3,90.8 61.3,89.6 61.3,87.4 "/>
<polygon class="st5" points="64.7,91.8 63.5,91.8 61.3,91.8 61.3,94 63.5,94 64.7,94 65.7,94 65.7,91.8 "/>
<rect x="61.3" y="87.4" class="st3" width="4.5" height="4.4"/>
<rect x="62.4" y="34.7" transform="matrix(-1.836970e-16 1 -1 -1.836970e-16 144.3807 17.3807)" class="st5" width="2.2" height="92.4"/>
<polygon class="st3" points="105.3,26.9 105.3,23.6 21.7,23.6 21.7,26.9 19.5,26.9 19.5,79.8 107.5,79.8 107.5,26.9 "/>
<rect x="19.5" y="24.7" class="st5" width="2.2" height="2.3"/>
<rect x="17.3" y="27" class="st5" width="2.2" height="54"/>
<rect x="105.3" y="24.7" transform="matrix(-1 -4.724411e-11 4.724411e-11 -1 212.7872 51.7513)" class="st5" width="2.2" height="2.3"/>
<rect x="107.5" y="27" transform="matrix(-1 -1.820853e-07 1.820853e-07 -1 217.2149 108.0474)" class="st5" width="2.2" height="54"/>
<rect x="62.4" y="-18.2" transform="matrix(6.123234e-17 -1 1 6.123234e-17 39.903 87.097)" class="st5" width="2.2" height="83.6"/>
<rect x="26" y="33.6" class="st5" width="1.7" height="6.8"/>
<rect x="38.6" y="40.2" class="st5" width="1.7" height="1.7"/>
<rect x="30.8" y="37.1" class="st5" width="1.7" height="3.3"/>
<polygon class="st5" points="37.4,40.8 37.4,34 35.7,34 35.7,40.2 27.6,40.2 27.6,41.9 37.4,41.9 37.4,40.8 "/>
<rect x="41.3" y="33.6" class="st5" width="1.7" height="6.8"/>
<rect x="46.2" y="37.1" class="st5" width="1.7" height="3.3"/>
<polygon class="st5" points="52.7,40.8 52.7,34 51.1,34 51.1,40.2 43,40.2 43,41.9 52.7,41.9 52.7,40.8 "/>
<rect x="54" y="40.2" class="st6" width="1.7" height="1.7"/>
<rect x="56.7" y="33.6" class="st5" width="1.7" height="6.8"/>
<rect x="61.6" y="37.1" class="st5" width="1.7" height="3.3"/>
<polygon class="st5" points="68.1,40.8 68.1,34 66.4,34 66.4,40.2 58.3,40.2 58.3,41.9 68.1,41.9 68.1,40.8 "/>
<g>
	<rect x="78.7" y="77.4" transform="matrix(0.8608 -0.509 0.509 0.8608 -29.408 51.7155)" class="st7" width="2.3" height="4.5"/>
	<rect x="78.9" y="74.4" transform="matrix(0.8608 -0.509 0.509 0.8608 -27.3089 51.2614)" class="st7" width="2.3" height="2.3"/>
	<polygon class="st7" points="85.8,78.7 81.9,81 83.1,82.9 85,81.8 90.3,90.6 92.2,89.5 	"/>
	<rect x="82" y="75.2" transform="matrix(0.8608 -0.509 0.509 0.8608 -27.2825 52.946)" class="st8" width="2.3" height="2.3"/>
	<rect x="80.9" y="73.3" transform="matrix(0.8608 -0.509 0.509 0.8608 -26.4534 52.0905)" class="st5" width="2.3" height="2.3"/>
	<rect x="79.7" y="71.3" transform="matrix(0.8608 -0.509 0.509 0.8608 -25.6243 51.235)" class="st7" width="2.3" height="2.3"/>
	<rect x="82.8" y="72.1" transform="matrix(0.8608 -0.509 0.509 0.8608 -25.5979 52.9196)" class="st8" width="2.3" height="2.3"/>
	<rect x="81.7" y="70.2" transform="matrix(0.8608 -0.509 0.509 0.8608 -24.7688 52.0641)" class="st5" width="2.3" height="2.3"/>
	<rect x="80.5" y="68.2" transform="matrix(0.8608 -0.509 0.509 0.8608 -23.9397 51.2087)" class="st7" width="2.3" height="2.3"/>
	<polygon class="st5" points="103.9,82.6 97.5,71.8 101.4,69.5 99.1,65.6 97.1,66.8 98.3,68.7 94.4,71 100.8,81.8 93,86.4 
		86.6,75.6 82.7,77.9 81.6,75.9 79.6,77.1 81.9,81 85.8,78.7 92.2,89.5 	"/>
	<rect x="89.7" y="74.1" transform="matrix(0.8608 -0.509 0.509 0.8608 -28.2854 57.4059)" class="st8" width="2.3" height="12.5"/>
	<rect x="83.6" y="69" transform="matrix(0.8608 -0.509 0.509 0.8608 -23.9134 52.8932)" class="st8" width="2.3" height="2.3"/>
	<rect x="82.4" y="67.1" transform="matrix(0.8608 -0.509 0.509 0.8608 -23.0843 52.0378)" class="st5" width="2.3" height="2.3"/>
	<rect x="81.3" y="65.1" transform="matrix(0.8608 -0.509 0.509 0.8608 -22.2552 51.1823)" class="st7" width="2.3" height="2.3"/>
	<rect x="84.4" y="65.9" transform="matrix(0.8608 -0.509 0.509 0.8608 -22.2288 52.8669)" class="st8" width="2.3" height="2.3"/>
	<rect x="83.1" y="63.4" transform="matrix(0.8608 -0.509 0.509 0.8608 -20.972 52.426)" class="st5" width="4.5" height="2.3"/>
	<rect x="86.3" y="64.8" transform="matrix(0.8608 -0.509 0.509 0.8608 -21.3733 53.696)" class="st9" width="2.3" height="2.3"/>
	<rect x="81.9" y="61.5" transform="matrix(0.8608 -0.509 0.509 0.8608 -20.1429 51.5705)" class="st7" width="4.5" height="2.3"/>
	<rect x="95.5" y="70.7" transform="matrix(0.8608 -0.509 0.509 0.8608 -25.719 59.8932)" class="st9" width="2.3" height="12.5"/>
	<rect x="89.4" y="65.6" transform="matrix(0.8608 -0.509 0.509 0.8608 -21.347 55.3806)" class="st9" width="2.3" height="2.3"/>
	<rect x="88.3" y="63.6" transform="matrix(0.8608 -0.509 0.509 0.8608 -20.5179 54.5251)" class="st5" width="2.3" height="2.3"/>
	<rect x="87.1" y="61.7" transform="matrix(0.8608 -0.509 0.509 0.8608 -19.6888 53.6696)" class="st7" width="2.3" height="2.3"/>
	<rect x="91.8" y="85.9" transform="matrix(0.8608 -0.509 0.509 0.8608 -30.5452 62.3068)" class="st7" width="13.5" height="2.3"/>
	<polygon class="st10" points="93.2,69 92.1,67.1 90.2,68.3 89,66.3 85.1,68.6 86.3,70.6 84.3,71.7 85.5,73.6 83.5,74.8 84.7,76.7 
		88.6,74.4 94.9,85.2 98.8,82.9 92.5,72.1 96.3,69.8 95.2,67.9 	"/>
	<rect x="92.5" y="66.4" transform="matrix(0.8608 -0.509 0.509 0.8608 -21.3206 57.0651)" class="st9" width="2.3" height="2.3"/>
	<rect x="91.4" y="64.4" transform="matrix(0.8608 -0.509 0.509 0.8608 -20.4915 56.2097)" class="st5" width="2.3" height="2.3"/>
	<rect x="90.2" y="62.5" transform="matrix(0.8608 -0.509 0.509 0.8608 -19.6624 55.3542)" class="st7" width="2.3" height="2.3"/>
	<polygon class="st7" points="97.5,71.8 103.9,82.6 105.8,81.4 100.6,72.6 102.5,71.4 101.4,69.5 	"/>
	<rect x="95.6" y="67.2" transform="matrix(0.8608 -0.509 0.509 0.8608 -21.2943 58.7497)" class="st9" width="2.3" height="2.3"/>
	<rect x="94.5" y="65.2" transform="matrix(0.8608 -0.509 0.509 0.8608 -20.4652 57.8942)" class="st5" width="2.3" height="2.3"/>
	<rect x="93.3" y="63.3" transform="matrix(0.8608 -0.509 0.509 0.8608 -19.636 57.0388)" class="st7" width="2.3" height="2.3"/>
	<rect x="96.4" y="64.1" transform="matrix(0.8608 -0.509 0.509 0.8608 -19.6097 58.7233)" class="st7" width="2.3" height="2.3"/>
	<rect x="100.1" y="64.7" transform="matrix(0.8608 -0.509 0.509 0.8608 -19.9979 60.8356)" class="st7" width="2.3" height="4.5"/>
</g>
<rect x="15.1" y="95.9" class="st2" width="96.9" height="1.8"/>
<polygon class="st5" points="111.9,97.2 15.1,97.2 15.1,99.4 39.6,99.4 39.6,108.9 41.8,108.9 41.8,99.4 85.2,99.4 85.2,109.1 
	87.4,109.1 87.4,99.4 111.9,99.4 "/>
<polygon class="st3" points="64.9,87.4 64.9,89.6 64.9,90.8 64.9,91.8 67.2,91.8 67.2,90.8 67.2,89.6 67.2,87.4 "/>
<polygon class="st5" points="65.7,87.4 65.7,89.6 65.7,90.8 65.7,91.8 67.9,91.8 67.9,90.8 67.9,89.6 67.9,87.4 "/>
<rect x="11.6" y="15.8" class="st2" width="2.2" height="2.2"/>
<rect x="10.6" y="15.8" class="st5" width="2.2" height="2.2"/>
<rect x="12.9" y="13.6" class="st5" width="2.2" height="2.2"/>
<rect x="12.9" y="95" class="st5" width="2.2" height="2.2"/>
<rect x="10.6" y="91.8" class="st2" width="2.2" height="2.2"/>
<rect x="10.6" y="92.8" class="st5" width="2.2" height="2.2"/>
<rect x="8.4" y="18.1" class="st5" width="2.2" height="74.7"/>
<rect x="114.1" y="15.8" transform="matrix(-1 -4.519020e-11 4.519020e-11 -1 230.498 33.9108)" class="st5" width="2.2" height="2.2"/>
</svg>
