<?xml version="1.0" encoding="utf-8"?>
<!-- Generator: Adobe Illustrator 22.1.0, SVG Export Plug-In . SVG Version: 6.00 Build 0)  -->
<svg version="1.1" id="图层_1" xmlns="http://www.w3.org/2000/svg" xmlns:xlink="http://www.w3.org/1999/xlink" x="0px" y="0px"
	 viewBox="0 0 128 128" style="enable-background:new 0 0 128 128;" xml:space="preserve">
<style type="text/css">
	.st0{fill:#F5A79B;}
	.st1{fill:#1CA1C4;}
	.st2{fill:#A7C9D4;}
	.st3{fill:#FFFFFF;}
	.st4{fill:#FFDF7B;}
	.st5{fill:#454E51;}
	.st6{fill:#3E4D56;}
	.st7{fill:#F7FEFF;}
	.st8{fill:#D87760;}
	.st9{fill:#F7A28D;}
	.st10{fill:#F58E6F;}
</style>
<rect x="105" y="51" class="st0" width="1" height="1"/>
<rect x="51.9" y="87.2" class="st0" width="1.2" height="0.6"/>
<g>
	<rect x="104.2" y="50.8" class="st0" width="1.5" height="0.8"/>
	<rect x="13" y="111.1" class="st2" width="70.3" height="3.8"/>
	<rect x="13" y="12.8" class="st2" width="70.1" height="5.6"/>
	<rect x="9.4" y="16.1" class="st2" width="77.5" height="96.1"/>
	<rect x="10.2" y="15.3" class="st2" width="2.7" height="2.7"/>
	<rect x="10.2" y="112" class="st5" width="2.7" height="2.7"/>
	<rect x="83.2" y="112" class="st5" width="2.7" height="2.7"/>
	<rect x="7.5" y="16" class="st5" width="2.7" height="96.3"/>
	<rect x="13" y="10.5" class="st5" width="70.2" height="2.7"/>
	<rect x="18.6" y="94.3" class="st3" width="53" height="13"/>
	<rect x="18.8" y="92.5" class="st3" width="52.7" height="2.7"/>
	<rect x="16" y="94.2" class="st5" width="2.7" height="13.2"/>
	<rect x="70.2" y="94.2" class="st3" width="2.7" height="13.2"/>
	<rect x="83.2" y="14.8" class="st2" width="2.7" height="2.7"/>
	<rect x="86" y="16" class="st5" width="2.7" height="96.3"/>
	<rect x="18.5" y="41" class="st5" width="34.3" height="1.8"/>
	<rect x="20.5" y="42.8" class="st4" width="34.3" height="1.8"/>
	<rect x="30.6" y="32.4" class="st4" width="12.3" height="1.8"/>
	<rect x="20.8" y="32.4" class="st4" width="6.6" height="1.8"/>
	<rect x="10.2" y="13.2" class="st5" width="2.7" height="2.7"/>
	<rect x="81.4" y="13.2" class="st2" width="2.7" height="3.1"/>
	<rect x="83.2" y="13.2" class="st5" width="2.7" height="2.7"/>
	<rect x="13" y="114.8" class="st5" width="70.2" height="2.7"/>
	<rect x="71.4" y="94.2" class="st5" width="2.7" height="13.2"/>
	<rect x="18.8" y="107.4" class="st5" width="52.7" height="2.7"/>
	<rect x="18.8" y="91.4" class="st5" width="52.7" height="2.7"/>
	<g>
		<polygon class="st8" points="50.4,99.4 53.1,99.3 53.4,91.9 55,91.9 55,86.7 57.2,86.7 59.7,79.6 62.3,73.7 67.4,66.4 73.4,56.2 
			84.4,43.1 97.6,31.3 104,21.6 103.9,17.8 100,16.2 95.6,15.9 77.3,32.9 62.5,58.2 55,79.6 52.6,86.7 50.4,91.9 		"/>
		<polygon class="st0" points="59.7,79.6 61.9,74.6 64.4,69.4 67.4,66.4 69,62 71.8,59.3 73.7,54.6 76.4,51.6 78.4,46.7 80.6,44.5 
			82.8,42 85.2,36.5 87.4,34 89.9,31.8 92.6,29.1 94.6,27.2 96.8,24.7 99.8,22 102,19.8 104.7,19.4 109.8,21.7 111.8,24.3 112.9,26 
			114.6,32.2 116.7,34.4 116.4,36.7 114.3,39.7 112.3,45.1 110.2,47.2 104.4,52.1 103.7,53.6 101.1,55.6 98.3,57.4 94.8,60.7 
			92,62.2 90.7,64.3 86.1,68.1 82.3,70.9 75.9,72.7 73.6,75 66.6,77.4 64.4,79.6 61.9,82.1 59.4,82.1 		"/>
		<polygon class="st10" points="52.5,79.8 52.7,71.6 55,62.6 57.3,49.2 59.7,44.2 61.9,39 64.4,33.8 66.6,31.6 69,29.4 71.2,26.9 
			73.7,24.7 75.9,22.2 78.4,20 80.7,19.2 85.3,17.4 90.7,15.7 100,16.2 99.2,17.8 96.9,20.2 94.4,22.4 80.7,36.4 78.2,42.1 76,44.3 
			73.6,46.5 71.4,52.3 68.9,54.5 66.7,59.7 64.2,61.9 62,67.1 59.6,69.3 57.4,74.5 55,79.8 		"/>
		<rect x="48.1" y="91.9" class="st5" width="2.4" height="7.4"/>
		<rect x="50.4" y="71.7" class="st5" width="2.3" height="20.2"/>
		<rect x="52.7" y="62.4" class="st5" width="2.3" height="9.3"/>
		<rect x="55" y="49.2" class="st5" width="2.3" height="13.2"/>
		<rect x="57.3" y="44.1" class="st5" width="2.3" height="5.1"/>
		<rect x="59.7" y="39" class="st5" width="2.3" height="5.1"/>
		<rect x="62" y="33.9" class="st5" width="2.3" height="5.1"/>
		<rect x="75.9" y="70.3" class="st5" width="7.7" height="2.3"/>
		<rect x="73.6" y="72.7" class="st5" width="2.3" height="2.3"/>
		<rect x="59.4" y="82" class="st5" width="2.6" height="2.3"/>
		<rect x="62" y="79.6" class="st5" width="2.3" height="2.3"/>
		<rect x="64.3" y="77.3" class="st5" width="2.3" height="2.3"/>
		<rect x="49.5" y="99.1" class="st5" width="3.3" height="2.6"/>
		<rect x="46.4" y="101.4" class="st5" width="3.3" height="2.6"/>
		<rect x="55" y="86.6" class="st5" width="2.3" height="5.3"/>
		<rect x="52.7" y="91.9" class="st5" width="2.3" height="7.4"/>
		<rect x="66.6" y="75" class="st5" width="7" height="2.3"/>
		<rect x="52.5" y="79.6" class="st5" width="2.6" height="7"/>
		<rect x="57.3" y="79.6" class="st5" width="2.3" height="7"/>
		<rect x="55" y="74.5" class="st5" width="2.3" height="5.1"/>
		<rect x="57.3" y="69.4" class="st5" width="2.3" height="5.1"/>
		<rect x="62" y="69.4" class="st5" width="2.3" height="5.1"/>
		<rect x="59.7" y="74.5" class="st5" width="2.3" height="5.1"/>
		<rect x="59.7" y="67.1" class="st5" width="2.3" height="2.3"/>
		<rect x="64.3" y="67.1" class="st5" width="2.3" height="2.3"/>
		<rect x="62" y="62" class="st5" width="2.3" height="5.1"/>
		<rect x="66.6" y="62" class="st5" width="2.3" height="5.1"/>
		<rect x="64.3" y="59.7" class="st5" width="2.3" height="2.3"/>
		<rect x="69" y="59.7" class="st5" width="2.3" height="2.3"/>
		<rect x="66.6" y="54.6" class="st5" width="2.3" height="5.1"/>
		<rect x="71.3" y="54.6" class="st5" width="2.3" height="5.1"/>
		<rect x="71.3" y="46.7" class="st5" width="2.3" height="5.6"/>
		<rect x="75.9" y="46.7" class="st5" width="2.3" height="5.6"/>
		<rect x="69" y="52.2" class="st5" width="2.3" height="2.3"/>
		<rect x="73.6" y="52.2" class="st5" width="2.3" height="2.3"/>
		<rect x="73.6" y="44.3" class="st5" width="2.3" height="2.3"/>
		<rect x="78.2" y="44.3" class="st5" width="2.3" height="2.3"/>
		<rect x="78.2" y="36.4" class="st5" width="2.3" height="5.6"/>
		<rect x="82.9" y="36.4" class="st5" width="2.3" height="5.6"/>
		<rect x="80.6" y="34.1" class="st5" width="2.3" height="2.3"/>
		<rect x="64.3" y="31.6" class="st5" width="2.3" height="2.3"/>
		<rect x="66.6" y="29.2" class="st5" width="2.3" height="2.3"/>
		<rect x="69" y="26.9" class="st5" width="2.3" height="2.3"/>
		<rect x="71.3" y="24.6" class="st5" width="2.3" height="2.3"/>
		<rect x="73.6" y="22.3" class="st5" width="2.3" height="2.3"/>
		<rect x="75.9" y="20" class="st5" width="2.3" height="2.3"/>
		<rect x="109.8" y="21.7" class="st5" width="2.3" height="2.3"/>
		<rect x="112.6" y="25.8" class="st5" width="2.3" height="6.6"/>
		<rect x="78.2" y="17.7" class="st5" width="2.3" height="2.3"/>
		<rect x="114.6" y="32.2" class="st5" width="2.3" height="2.3"/>
		<rect x="116.2" y="34.5" class="st5" width="2.3" height="2.3"/>
		<rect x="114.4" y="36.8" class="st5" width="2.3" height="2.3"/>
		<rect x="110.1" y="45.2" class="st5" width="2.3" height="2.3"/>
		<rect x="107.8" y="47.2" class="st5" width="2.3" height="2.3"/>
		<rect x="105.7" y="49.3" class="st5" width="2.3" height="2.3"/>
		<rect x="103.7" y="51.3" class="st5" width="2.3" height="2.3"/>
		<rect x="101.4" y="53.6" class="st5" width="2.3" height="2.3"/>
		<rect x="99.1" y="55.4" class="st5" width="2.3" height="2.3"/>
		<rect x="97.1" y="56.6" class="st5" width="2.3" height="2.3"/>
		<rect x="95" y="58.2" class="st5" width="2.3" height="2.3"/>
		<rect x="93" y="60" class="st5" width="2.3" height="2.3"/>
		<rect x="91" y="61.5" class="st5" width="2.3" height="2.3"/>
		<rect x="88.9" y="63.3" class="st5" width="2.3" height="2.3"/>
		<rect x="86.9" y="65.3" class="st5" width="2.3" height="2.3"/>
		<rect x="84.8" y="67.1" class="st5" width="2.3" height="2.3"/>
		<rect x="82.8" y="68.1" class="st5" width="2.3" height="2.3"/>
		<rect x="112.4" y="39.1" class="st5" width="2.3" height="6.3"/>
		<rect x="90.7" y="13.8" class="st5" width="8.4" height="2.3"/>
		<rect x="85.3" y="15.1" class="st5" width="5.3" height="2.3"/>
		<rect x="80.5" y="17.4" class="st5" width="4.8" height="2.3"/>
		<rect x="85.2" y="34.1" class="st5" width="2.3" height="2.3"/>
		<rect x="82.9" y="31.8" class="st5" width="2.3" height="2.3"/>
		<rect x="87.5" y="31.8" class="st5" width="2.3" height="2.3"/>
		<rect x="85.2" y="29.5" class="st5" width="2.3" height="2.3"/>
		<rect x="89.9" y="29.5" class="st5" width="2.3" height="2.3"/>
		<rect x="87.5" y="27.2" class="st5" width="2.3" height="2.3"/>
		<rect x="92.2" y="27.2" class="st5" width="2.3" height="2.3"/>
		<rect x="89.9" y="24.8" class="st5" width="2.3" height="2.3"/>
		<rect x="94.5" y="24.8" class="st5" width="2.3" height="2.3"/>
		<rect x="92.2" y="22.5" class="st5" width="2.3" height="2.3"/>
		<rect x="96.8" y="22.5" class="st5" width="2.3" height="2.3"/>
		<rect x="94.5" y="20.2" class="st5" width="2.3" height="2.3"/>
		<rect x="96.8" y="17.9" class="st5" width="2.3" height="2.3"/>
		<rect x="98.8" y="15.5" class="st5" width="4.6" height="2.3"/>
		<rect x="99.1" y="20.2" class="st5" width="2.3" height="2.3"/>
		<rect x="101.4" y="19.4" class="st5" width="2.3" height="2.3"/>
		<rect x="102.2" y="17.6" class="st5" width="4.5" height="2.3"/>
		<rect x="105.8" y="19.7" class="st5" width="4.5" height="2.3"/>
		<rect x="111.7" y="24" class="st5" width="4.5" height="2.3"/>
		<rect x="75.9" y="42" class="st5" width="2.3" height="2.3"/>
		<rect x="80.6" y="42" class="st5" width="2.3" height="2.3"/>
	</g>
	<rect x="28.4" y="30.6" class="st5" width="12.3" height="1.8"/>
	<rect x="18.5" y="30.6" class="st5" width="6.6" height="1.8"/>
</g>
</svg>
